<?xml version="1.0" encoding="UTF-8" standalone="no"?>
<svg
   xmlns:dc="http://purl.org/dc/elements/1.1/"
   xmlns:cc="http://creativecommons.org/ns#"
   xmlns:rdf="http://www.w3.org/1999/02/22-rdf-syntax-ns#"
   xmlns:svg="http://www.w3.org/2000/svg"
   xmlns="http://www.w3.org/2000/svg"
   xmlns:sodipodi="http://sodipodi.sourceforge.net/DTD/sodipodi-0.dtd"
   xmlns:inkscape="http://www.inkscape.org/namespaces/inkscape"
   width="256pt"
   height="256pt"
   viewBox="0 0 256 256"
   version="1.1"
   id="svg2"
   inkscape:version="0.48.4 r9939"
   sodipodi:docname="logo.svg"
   inkscape:export-filename="/home/volker/data/business/corporate-identity/favico.png"
   inkscape:export-xdpi="8.8618517"
   inkscape:export-ydpi="8.8618517">
  <metadata
     id="metadata19">
    <rdf:RDF>
      <cc:Work
         rdf:about="">
        <dc:format>image/svg+xml</dc:format>
        <dc:type
           rdf:resource="http://purl.org/dc/dcmitype/StillImage" />
        <dc:title></dc:title>
      </cc:Work>
    </rdf:RDF>
  </metadata>
  <defs
     id="defs17" />
  <sodipodi:namedview
     pagecolor="#ffffff"
     bordercolor="#666666"
     borderopacity="1"
     objecttolerance="10"
     gridtolerance="10"
     guidetolerance="10"
     inkscape:pageopacity="0"
     inkscape:pageshadow="2"
     inkscape:window-width="1051"
     inkscape:window-height="810"
     id="namedview15"
     showgrid="false"
     inkscape:zoom="0.5"
     inkscape:cx="160"
     inkscape:cy="160"
     inkscape:window-x="615"
     inkscape:window-y="321"
     inkscape:window-maximized="0"
     inkscape:current-layer="svg2" />
  <g
     id="surface1">
    <path
       style="fill-rule:nonzero;fill:rgb(30%,70%,30%);fill-opacity:1;stroke-width:0.04;stroke-linecap:butt;stroke-linejoin:miter;stroke:rgb(21%,49%,21%);stroke-opacity:1;stroke-miterlimit:10;"
       d="M 0.578537 0.535263 L 0.788544 0.535263 C 0.845917 0.535263 0.898438 0.567459 0.924484 0.618576 C 0.950531 0.669693 0.945694 0.73111 0.911972 0.777527 C 0.87825 0.823944 0.821335 0.847519 0.764679 0.838531 C 0.708008 0.829559 0.661163 0.789551 0.643433 0.734985 Z M 0.578537 0.535263 "
       transform="matrix(256,0,0,256,0,0)"
       id="path5" />
    <path
       style="fill-rule:nonzero;fill:rgb(30%,70%,30%);fill-opacity:1;stroke-width:0.04;stroke-linecap:butt;stroke-linejoin:miter;stroke:rgb(21%,49%,21%);stroke-opacity:1;stroke-miterlimit:10;"
       d="M 0.511459 0.557068 L 0.576355 0.75679 C 0.594086 0.811356 0.579697 0.871246 0.539139 0.911819 C 0.498566 0.952393 0.43866 0.966766 0.384094 0.949036 C 0.329529 0.931305 0.28952 0.884476 0.280548 0.827805 C 0.271576 0.771133 0.295151 0.714218 0.341568 0.680496 Z M 0.511459 0.557068 "
       transform="matrix(256,0,0,256,0,0)"
       id="path7" />
    <path
       style="fill-rule:nonzero;fill:rgb(30%,70%,30%);fill-opacity:1;stroke-width:0.04;stroke-linecap:butt;stroke-linejoin:miter;stroke:rgb(21%,49%,21%);stroke-opacity:1;stroke-miterlimit:10;"
       d="M 0.470001 0.5 L 0.30011 0.623428 C 0.253693 0.657166 0.192276 0.661987 0.141159 0.635941 C 0.0900421 0.609894 0.0578461 0.557373 0.0578461 0.5 C 0.0578461 0.442627 0.0900421 0.390106 0.141159 0.364059 C 0.192276 0.338013 0.253693 0.342834 0.30011 0.376572 Z M 0.470001 0.5 "
       transform="matrix(256,0,0,256,0,0)"
       id="path9" />
    <path
       style="fill-rule:nonzero;fill:rgb(30%,70%,30%);fill-opacity:1;stroke-width:0.04;stroke-linecap:butt;stroke-linejoin:miter;stroke:rgb(21%,49%,21%);stroke-opacity:1;stroke-miterlimit:10;"
       d="M 0.511459 0.442932 L 0.341568 0.319504 C 0.295151 0.285782 0.271576 0.228867 0.280548 0.172195 C 0.28952 0.115524 0.329529 0.0686951 0.384094 0.0509644 C 0.43866 0.0332336 0.498566 0.0476074 0.539139 0.0881805 C 0.579697 0.128754 0.594086 0.188644 0.576355 0.24321 Z M 0.511459 0.442932 "
       transform="matrix(256,0,0,256,0,0)"
       id="path11" />
    <path
       style="fill:none;stroke-width:0.04;stroke-linecap:butt;stroke-linejoin:miter;stroke:rgb(21%,49%,21%);stroke-opacity:1;stroke-miterlimit:10;"
       d="M 0.578537 0.464737 L 0.643433 0.265015 C 0.661163 0.210449 0.708008 0.170441 0.764679 0.161469 C 0.821335 0.152481 0.87825 0.176056 0.911972 0.222473 C 0.945694 0.26889 0.950531 0.330307 0.924484 0.381424 C 0.898438 0.432541 0.845917 0.464737 0.788544 0.464737 Z M 0.578537 0.464737 "
       transform="matrix(256,0,0,256,0,0)"
       id="path13" />
  </g>
</svg>
